<svg width="747" height="735" viewBox="0 0 747 735" fill="none" xmlns="http://www.w3.org/2000/svg">
<path d="M501.77 12.9607C501.77 12.9607 384.089 -28.8697 268.56 37.7677C153.03 104.405 94.7886 236.676 44.733 342.62C-5.32262 448.563 23.4909 556.351 111.63 605.496C199.769 654.64 259.759 582.194 383.425 578.666C507.092 575.138 540.355 592.825 643.038 522.935C745.722 453.045 764.311 288.054 683.338 165.832C602.366 43.6093 501.77 12.9607 501.77 12.9607Z" fill="#92E3A9"/>
<path opacity="0.7" d="M501.77 12.9607C501.77 12.9607 384.089 -28.8697 268.56 37.7677C153.03 104.405 94.7886 236.676 44.733 342.62C-5.32262 448.563 23.4909 556.351 111.63 605.496C199.769 654.64 259.759 582.194 383.425 578.666C507.092 575.138 540.355 592.825 643.038 522.935C745.722 453.045 764.311 288.054 683.338 165.832C602.366 43.6093 501.77 12.9607 501.77 12.9607Z" fill="white"/>
<path d="M387.858 734.01C583.33 734.01 741.791 725.504 741.791 715.012C741.791 704.52 583.33 696.015 387.858 696.015C192.387 696.015 33.9258 704.52 33.9258 715.012C33.9258 725.504 192.387 734.01 387.858 734.01Z" fill="#92E3A9"/>
<path opacity="0.5" d="M387.858 734.01C583.33 734.01 741.791 725.504 741.791 715.012C741.791 704.52 583.33 696.015 387.858 696.015C192.387 696.015 33.9258 704.52 33.9258 715.012C33.9258 725.504 192.387 734.01 387.858 734.01Z" fill="white"/>
<path d="M33.9096 690.432H734.429" stroke="#263238" stroke-linecap="round" stroke-linejoin="round"/>
<path d="M713.398 33.447H423.806V52.8654H713.398V33.447Z" stroke="#263238" stroke-linecap="round" stroke-linejoin="round"/>
<path d="M713.398 57.72H423.806V77.1384H713.398V57.72Z" stroke="#263238" stroke-linecap="round" stroke-linejoin="round"/>
<path d="M713.398 81.993H423.806V101.411H713.398V81.993Z" stroke="#263238" stroke-linecap="round" stroke-linejoin="round"/>
<path d="M713.398 106.266H423.806V125.684H713.398V106.266Z" stroke="#263238" stroke-linecap="round" stroke-linejoin="round"/>
<path d="M713.398 130.539H423.806V149.957H713.398V130.539Z" stroke="#263238" stroke-linecap="round" stroke-linejoin="round"/>
<path d="M713.398 154.812H423.806V174.23H713.398V154.812Z" stroke="#263238" stroke-linecap="round" stroke-linejoin="round"/>
<path d="M713.398 179.085H423.806V198.503H713.398V179.085Z" stroke="#263238" stroke-linecap="round" stroke-linejoin="round"/>
<path d="M713.398 203.358H423.806V222.776H713.398V203.358Z" stroke="#263238" stroke-linecap="round" stroke-linejoin="round"/>
<path d="M713.398 227.631H423.806V247.049H713.398V227.631Z" stroke="#263238" stroke-linecap="round" stroke-linejoin="round"/>
<path d="M713.398 251.904H423.806V271.322H713.398V251.904Z" stroke="#263238" stroke-linecap="round" stroke-linejoin="round"/>
<path d="M713.398 276.177H423.806V295.595H713.398V276.177Z" stroke="#263238" stroke-linecap="round" stroke-linejoin="round"/>
<path d="M713.398 300.449H423.806V319.868H713.398V300.449Z" stroke="#263238" stroke-linecap="round" stroke-linejoin="round"/>
<path d="M713.398 324.723H423.806V344.141H713.398V324.723Z" stroke="#263238" stroke-linecap="round" stroke-linejoin="round"/>
<path d="M92.8472 351.762C92.8472 351.762 92.8472 344.011 82.0078 333.169C71.1683 322.327 64.2117 316.13 64.2117 316.13C64.2117 316.13 58.7919 333.93 68.8548 344.788C76.2537 352.426 84.2793 359.43 92.8472 365.727V351.762Z" fill="#92E3A9"/>
<path d="M77.1219 400.114C77.1219 400.114 77.1219 392.363 66.2825 381.537C55.443 370.712 48.4863 364.498 48.4863 364.498C48.4863 364.498 43.0666 382.298 53.1295 393.14C60.5297 400.766 68.5552 407.76 77.1219 414.047V400.114Z" fill="#92E3A9"/>
<path d="M92.2162 364.951C92.2162 364.951 93.0413 357.248 104.965 347.604C116.888 337.959 124.46 332.554 124.46 332.554C124.46 332.554 127.97 350.84 116.823 360.549C108.651 367.346 99.9281 373.452 90.744 378.803L92.2162 364.951Z" fill="#92E3A9"/>
<path d="M73.1744 422.057C73.1744 422.057 74.7923 414.484 87.7349 406.15C100.678 397.816 108.767 393.205 108.767 393.205C108.767 393.205 110.384 411.749 98.2184 420.245C89.3827 426.147 80.0694 431.3 70.3756 435.65L73.1744 422.057Z" fill="#92E3A9"/>
<path d="M76.7336 484.325C76.7336 484.325 76.7336 476.574 87.5731 465.732C98.4125 454.89 105.369 448.709 105.369 448.709C105.369 448.709 110.789 466.509 100.726 477.351C93.3272 484.979 85.3016 491.972 76.7336 498.258V484.325Z" fill="#92E3A9"/>
<path d="M76.5557 499.52C76.5557 499.52 77.6558 491.85 68.4665 479.584C59.2773 467.318 53.2589 460.165 53.2589 460.165C53.2589 460.165 45.3801 477.027 53.7928 489.18C60.0381 497.783 66.992 505.848 74.5819 513.291L76.5557 499.52Z" fill="#92E3A9"/>
<path d="M65.878 544.571C65.878 544.571 65.878 536.819 76.7175 525.978C87.5569 515.136 94.5136 508.954 94.5136 508.954C94.5136 508.954 99.9333 526.754 89.8704 537.596C82.4702 545.223 74.4447 552.216 65.878 558.503V544.571Z" fill="#92E3A9"/>
<path d="M73.1097 585.398C73.1097 585.398 71.1845 577.922 78.8853 564.766C86.5862 551.61 91.828 543.729 91.828 543.729C91.828 543.729 101.535 559.571 94.5945 572.614C89.3657 581.871 83.3694 590.672 76.6689 598.926L73.1097 585.398Z" fill="#92E3A9"/>
<path d="M93.8341 349.772C93.2907 357.837 92.2969 365.865 90.8573 373.819C86.5862 395.956 75.8762 410.244 71.589 430.229C67.3017 450.214 79.6781 475.992 76.313 501.688C72.9479 527.385 63.0145 541.658 65.878 558.795C68.7416 575.931 83.6741 622.357 83.6741 622.357" stroke="#263238" stroke-linecap="round" stroke-linejoin="round"/>
<path d="M92.0706 370.097L103.751 361.132" stroke="#263238" stroke-linecap="round" stroke-linejoin="round"/>
<path d="M92.6045 359.773L87.7187 351.067" stroke="#263238" stroke-linecap="round" stroke-linejoin="round"/>
<path d="M72.2361 429.323C72.2361 429.323 81.9431 421.976 92.0707 414.646" stroke="#263238" stroke-linecap="round" stroke-linejoin="round"/>
<path d="M77.1219 414.047C77.1219 414.047 69.0328 398.075 59.7464 387.476" stroke="#263238" stroke-linecap="round" stroke-linejoin="round"/>
<path d="M77.1219 495.345C82.7021 485.049 89.7486 475.619 98.0404 467.35" stroke="#263238" stroke-linecap="round" stroke-linejoin="round"/>
<path d="M75.2291 506.203C72.2824 499.226 68.7652 492.504 64.7132 486.105C59.0022 477.674 58.2419 476.59 58.2419 476.59" stroke="#263238" stroke-linecap="round" stroke-linejoin="round"/>
<path d="M65.878 558.794C68.3541 552.646 71.2963 546.695 74.679 540.994C78.0607 535.708 81.8757 530.712 86.0847 526.058" stroke="#263238" stroke-linecap="round" stroke-linejoin="round"/>
<path d="M76.6366 598.893C76.0685 593.017 77.0794 587.095 79.5648 581.741C83.6418 573.86 88.2526 563.536 90.1616 559.458" stroke="#263238" stroke-linecap="round" stroke-linejoin="round"/>
<path d="M21.8731 455.198C21.8731 455.198 21.0318 450.343 26.7266 442.365C32.4213 434.388 36.0453 429.76 36.0453 429.76C36.0453 429.76 41.3679 440.343 36.2394 448.223C32.4238 453.807 28.1487 459.063 23.4585 463.936L21.8731 455.198Z" fill="#92E3A9"/>
<path d="M36.9836 483.856C36.9836 483.856 36.1585 479.001 41.8371 471.024C47.5157 463.046 51.1558 458.402 51.1558 458.402C51.1558 458.402 56.4784 468.985 51.3499 476.881C47.5348 482.466 43.2597 487.722 38.5691 492.594L36.9836 483.856Z" fill="#92E3A9"/>
<path d="M23.7336 463.402C23.7336 463.402 22.3908 458.661 13.8648 453.919C5.33887 449.178 3.14941e-05 446.637 3.14941e-05 446.637C3.14941e-05 446.637 -0.210285 458.483 7.83032 463.369C13.6923 466.74 19.8233 469.62 26.1603 471.978L23.7336 463.402Z" fill="#92E3A9"/>
<path d="M41.8533 497.141C41.8533 497.141 40.0089 492.578 31.0462 488.759C22.0834 484.94 16.4857 482.917 16.4857 482.917C16.4857 482.917 17.505 494.73 26.0309 498.743C32.2156 501.482 38.6173 503.701 45.1698 505.378L41.8533 497.141Z" fill="#92E3A9"/>
<path d="M46.367 536.577C46.367 536.577 45.5257 531.722 37.5498 526.107C29.5739 520.492 24.6072 517.353 24.6072 517.353C24.6072 517.353 23.135 529.117 30.6255 534.813C36.0762 538.799 41.8504 542.323 47.8878 545.347L46.367 536.577Z" fill="#92E3A9"/>
<path d="M48.1304 546.092C48.1304 546.092 46.6097 541.415 51.0425 532.709C55.4754 524.003 58.4683 518.906 58.4683 518.906C58.4683 518.906 65.247 528.615 61.2834 537.159C58.3076 543.236 54.8222 549.05 50.8646 554.539L48.1304 546.092Z" fill="#92E3A9"/>
<path d="M61.7364 585.268C61.7364 585.268 62.3026 580.414 69.9388 574.297C77.5749 568.18 82.5093 564.766 82.5093 564.766C82.5093 564.766 84.6448 576.433 77.494 582.566C72.2572 586.848 66.6725 590.685 60.798 594.039L61.7364 585.268Z" fill="#92E3A9"/>
<path d="M59.7302 573.18C59.7302 573.18 58.889 568.326 50.9131 562.711C42.9372 557.095 37.9705 553.956 37.9705 553.956C37.9705 553.956 36.5144 565.704 44.005 571.416C49.4684 575.4 55.2593 578.913 61.3157 581.919L59.7302 573.18Z" fill="#92E3A9"/>
<path d="M59.617 599.573C59.617 599.573 60.0377 594.718 53.7443 587.21C47.4509 579.702 43.374 575.446 43.374 575.446C43.374 575.446 38.9735 586.449 44.7815 593.861C49.0583 599.105 53.7723 603.977 58.8728 608.425L59.617 599.573Z" fill="#92E3A9"/>
<path d="M21.0318 454.065C22.2526 459.061 23.7432 463.988 25.497 468.823C30.6093 482.237 38.8279 490.037 43.6814 502.109C48.5349 514.181 43.6814 531.673 48.5349 547.418C53.3884 563.164 61.2187 571.044 61.2834 582.096C61.3481 593.149 56.9961 623.911 56.9961 623.911" stroke="#263238" stroke-linecap="round" stroke-linejoin="round"/>
<path d="M24.3645 466.606L16.0651 462.253" stroke="#263238" stroke-linecap="round" stroke-linejoin="round"/>
<path d="M22.9085 460.198L25.0278 454.21" stroke="#263238" stroke-linecap="round" stroke-linejoin="round"/>
<path d="M43.2284 501.656C43.2284 501.656 36.3041 498.112 29.2018 494.601" stroke="#263238" stroke-linecap="round" stroke-linejoin="round"/>
<path d="M38.5043 492.562C40.5412 486.121 43.2242 479.902 46.5126 474.001" stroke="#263238" stroke-linecap="round" stroke-linejoin="round"/>
<path d="M47.3215 543.535C42.6961 537.687 37.2465 532.541 31.1432 528.259" stroke="#263238" stroke-linecap="round" stroke-linejoin="round"/>
<path d="M49.6997 550.202C50.8027 545.501 52.2963 540.9 54.1649 536.447C56.8182 530.541 57.2064 529.78 57.2064 529.78" stroke="#263238" stroke-linecap="round" stroke-linejoin="round"/>
<path d="M60.8951 590.495C63.5882 587.148 66.5711 584.045 69.8093 581.223C71.873 579.705 73.8099 578.022 75.6011 576.19" stroke="#263238" stroke-linecap="round" stroke-linejoin="round"/>
<path d="M61.2672 582.096C59.0463 578.507 56.5529 575.093 53.809 571.886C51.1129 568.953 48.1801 566.247 45.0404 563.795" stroke="#263238" stroke-linecap="round" stroke-linejoin="round"/>
<path d="M58.8728 608.457C58.5883 604.71 57.3093 601.107 55.168 598.02C51.7544 593.521 47.7422 587.55 46.1082 585.203" stroke="#263238" stroke-linecap="round" stroke-linejoin="round"/>
<path d="M99.6744 699.076H49.3438C48.2926 699.076 47.2844 698.658 46.541 697.915C45.7977 697.171 45.3801 696.163 45.3801 695.111L32.8905 617.568H116.112L103.638 695.111C103.638 696.163 103.221 697.171 102.477 697.915C101.734 698.658 100.726 699.076 99.6744 699.076Z" fill="#263238" stroke="#263238" stroke-linecap="round" stroke-linejoin="round"/>
<path d="M115.384 628.474H32.8743C31.158 628.474 29.512 627.792 28.2984 626.578C27.0848 625.364 26.403 623.718 26.403 622.001C26.403 620.285 27.0848 618.638 28.2984 617.424C29.512 616.211 31.158 615.529 32.8743 615.529H115.384C117.1 615.529 118.746 616.211 119.959 617.424C121.173 618.638 121.855 620.285 121.855 622.001C121.855 623.718 121.173 625.364 119.959 626.578C118.746 627.792 117.1 628.474 115.384 628.474Z" fill="#263238" stroke="#263238" stroke-linecap="round" stroke-linejoin="round"/>
<path d="M36.1585 628.749H96.0667" stroke="white" stroke-linecap="round" stroke-linejoin="round"/>
<path d="M101.713 628.749H111.565" stroke="white" stroke-linecap="round" stroke-linejoin="round"/>
<path d="M314.603 138.63C344.535 138.63 368.8 114.359 368.8 84.4202C368.8 54.4811 344.535 30.2106 314.603 30.2106C284.671 30.2106 260.406 54.4811 260.406 84.4202C260.406 114.359 284.671 138.63 314.603 138.63Z" stroke="#263238" stroke-width="4" stroke-linecap="round" stroke-linejoin="round"/>
<path d="M314.603 88.4496C316.828 88.4496 318.631 86.6456 318.631 84.4202C318.631 82.1949 316.828 80.3909 314.603 80.3909C312.378 80.3909 310.575 82.1949 310.575 84.4202C310.575 86.6456 312.378 88.4496 314.603 88.4496Z" stroke="#263238" stroke-width="2" stroke-linecap="round" stroke-linejoin="round"/>
<path d="M318.631 84.4203H338.531" stroke="#263238" stroke-width="2" stroke-linecap="round" stroke-linejoin="round"/>
<path d="M310.898 86.5886L273.704 107.14" stroke="#263238" stroke-width="2" stroke-linecap="round" stroke-linejoin="round"/>
<path d="M314.085 35.4374V46.5383" stroke="#263238" stroke-linecap="round" stroke-linejoin="round"/>
<path d="M314.085 121.752V132.853" stroke="#263238" stroke-linecap="round" stroke-linejoin="round"/>
<path d="M265.389 84.1452H276.487" stroke="#263238" stroke-linecap="round" stroke-linejoin="round"/>
<path d="M351.684 84.1452H362.782" stroke="#263238" stroke-linecap="round" stroke-linejoin="round"/>
<path d="M287.213 124.762L293.345 115.506" stroke="#263238" stroke-linecap="round" stroke-linejoin="round"/>
<path d="M334.842 52.7845L340.957 43.5123" stroke="#263238" stroke-linecap="round" stroke-linejoin="round"/>
<path d="M270.938 61.5714L280.774 66.7172" stroke="#263238" stroke-linecap="round" stroke-linejoin="round"/>
<path d="M347.396 101.573L357.249 106.719" stroke="#263238" stroke-linecap="round" stroke-linejoin="round"/>
<path d="M286.372 44.0948L292.698 53.2214" stroke="#263238" stroke-linecap="round" stroke-linejoin="round"/>
<path d="M335.489 115.069L341.799 124.196" stroke="#263238" stroke-linecap="round" stroke-linejoin="round"/>
<path d="M270.792 106.46L280.661 101.379" stroke="#263238" stroke-linecap="round" stroke-linejoin="round"/>
<path d="M347.51 66.9114L357.378 61.8141" stroke="#263238" stroke-linecap="round" stroke-linejoin="round"/>
<path d="M373.104 272.779H458.412V359.546H339.129V306.761C339.129 297.748 342.709 289.105 349.08 282.732C355.452 276.359 364.093 272.779 373.104 272.779Z" fill="white" stroke="#263238" stroke-linecap="round" stroke-linejoin="round"/>
<path d="M485.996 273.199H575.688C580.743 273.199 585.59 275.208 589.164 278.782C592.738 282.357 594.746 287.206 594.746 292.262V694.222H485.996V273.199Z" fill="#3D3D3D" stroke="#263238" stroke-linecap="round" stroke-linejoin="round"/>
<path d="M599.988 287.682L538.753 294.155V286.63L599.988 280.174V287.682Z" fill="#737373" stroke="#263238" stroke-linecap="round" stroke-linejoin="round"/>
<path d="M544.642 302.036L504.115 306.324V290.287L544.642 286.015V302.036Z" fill="#737373" stroke="#263238" stroke-linecap="round" stroke-linejoin="round"/>
<path d="M410.734 707.216C418.633 707.216 425.036 700.811 425.036 692.911C425.036 685.01 418.633 678.606 410.734 678.606C402.836 678.606 396.433 685.01 396.433 692.911C396.433 700.811 402.836 707.216 410.734 707.216Z" fill="#263238" stroke="#263238" stroke-linecap="round" stroke-linejoin="round"/>
<path d="M356.812 707.216C364.711 707.216 371.114 700.811 371.114 692.911C371.114 685.01 364.711 678.606 356.812 678.606C348.914 678.606 342.51 685.01 342.51 692.911C342.51 700.811 348.914 707.216 356.812 707.216Z" fill="#263238" stroke="#263238" stroke-linecap="round" stroke-linejoin="round"/>
<path d="M629.206 707.216C637.104 707.216 643.507 700.811 643.507 692.911C643.507 685.01 637.104 678.606 629.206 678.606C621.307 678.606 614.904 685.01 614.904 692.911C614.904 700.811 621.307 707.216 629.206 707.216Z" fill="#263238" stroke="#263238" stroke-linecap="round" stroke-linejoin="round"/>
<path d="M575.284 707.216C583.182 707.216 589.585 700.811 589.585 692.911C589.585 685.01 583.182 678.606 575.284 678.606C567.385 678.606 560.982 685.01 560.982 692.911C560.982 700.811 567.385 707.216 575.284 707.216Z" fill="#263238" stroke="#263238" stroke-linecap="round" stroke-linejoin="round"/>
<path d="M594.746 322.36H339.129V694.254H594.746V322.36Z" fill="white" stroke="#263238" stroke-linecap="round" stroke-linejoin="round"/>
<path d="M332.415 457.819L330.539 457.658L256.491 451.169L229.133 448.757V454.955L289.025 466.995V473.645L330.539 487.578V496.899L359.789 499.472V497.4V460.214L332.415 457.819Z" fill="#ADADAD" stroke="#263238" stroke-linecap="round" stroke-linejoin="round"/>
<path d="M229.133 454.971L254.954 457.221" stroke="#263238" stroke-linecap="round" stroke-linejoin="round"/>
<path d="M289.025 466.995L313.276 469.131" stroke="#263238" stroke-linecap="round" stroke-linejoin="round"/>
<path d="M289.025 473.645L314.846 475.895" stroke="#263238" stroke-linecap="round" stroke-linejoin="round"/>
<path d="M330.539 487.578L355.663 489.779" stroke="#263238" stroke-linecap="round" stroke-linejoin="round"/>
<path d="M254.954 457.22L315.056 469.292V456.298L254.954 451.023V457.22Z" fill="white" stroke="#263238" stroke-linecap="round" stroke-linejoin="round"/>
<path d="M314.846 475.894L385.609 499.666V462.48L314.846 456.266V475.894Z" fill="white" stroke="#263238" stroke-linecap="round" stroke-linejoin="round"/>
<path d="M356.359 499.164L385.609 501.721V462.48L356.359 459.907V499.164Z" fill="white" stroke="#263238" stroke-linecap="round" stroke-linejoin="round"/>
<path d="M594.746 322.36H339.129V356.455H594.746V322.36Z" fill="#92E3A9" stroke="#263238" stroke-linecap="round" stroke-linejoin="round"/>
<path d="M380.432 435.472H344.29V448.903H380.432V435.472Z" fill="#3D3D3D" stroke="#263238" stroke-linecap="round" stroke-linejoin="round"/>
<path d="M744.088 368.98H688.208L608.692 396.732V425.666L744.088 368.98Z" fill="#ADADAD" stroke="#263238" stroke-linecap="round" stroke-linejoin="round"/>
<path d="M746.191 374.806L670.525 420.746L662.468 398.399L744.088 368.98L746.191 374.806Z" fill="white" stroke="#263238" stroke-linecap="round" stroke-linejoin="round"/>
<path d="M719.19 398.82L643.507 444.76L630.905 409.775L712.54 380.356L719.19 398.82Z" fill="white" stroke="#263238" stroke-linecap="round" stroke-linejoin="round"/>
<path d="M654.266 350.468H605.715V397.558H654.266V350.468Z" fill="white" stroke="#9E9E9E" stroke-linecap="round" stroke-linejoin="round"/>
<path d="M605.893 356.31H653.975" stroke="#9E9E9E" stroke-linecap="round" stroke-linejoin="round"/>
<path d="M605.893 362.329H653.975" stroke="#9E9E9E" stroke-linecap="round" stroke-linejoin="round"/>
<path d="M605.893 368.349H653.975" stroke="#9E9E9E" stroke-linecap="round" stroke-linejoin="round"/>
<path d="M605.893 374.369H653.975" stroke="#9E9E9E" stroke-linecap="round" stroke-linejoin="round"/>
<path d="M605.893 380.389H653.975" stroke="#9E9E9E" stroke-linecap="round" stroke-linejoin="round"/>
<path d="M605.893 386.424H653.975" stroke="#9E9E9E" stroke-linecap="round" stroke-linejoin="round"/>
<path d="M605.893 392.444H653.975" stroke="#9E9E9E" stroke-linecap="round" stroke-linejoin="round"/>
<path d="M701.41 381.327L654.201 397.509V350.42L701.41 334.238V381.327Z" fill="white" stroke="#9E9E9E" stroke-linecap="round" stroke-linejoin="round"/>
<path d="M654.379 356.197L701.118 340.176" stroke="#9E9E9E" stroke-linecap="round" stroke-linejoin="round"/>
<path d="M654.379 362.216L701.118 346.196" stroke="#9E9E9E" stroke-linecap="round" stroke-linejoin="round"/>
<path d="M654.379 368.236L701.118 352.216" stroke="#9E9E9E" stroke-linecap="round" stroke-linejoin="round"/>
<path d="M654.379 374.256L701.118 358.235" stroke="#9E9E9E" stroke-linecap="round" stroke-linejoin="round"/>
<path d="M654.379 380.292L701.118 364.271" stroke="#9E9E9E" stroke-linecap="round" stroke-linejoin="round"/>
<path d="M654.379 386.311L701.118 370.291" stroke="#9E9E9E" stroke-linecap="round" stroke-linejoin="round"/>
<path d="M654.379 392.331L701.118 376.311" stroke="#9E9E9E" stroke-linecap="round" stroke-linejoin="round"/>
<path d="M701.41 334.238H652.308L605.715 350.468L654.201 350.42L701.41 334.238Z" fill="white" stroke="#9E9E9E" stroke-linecap="round" stroke-linejoin="round"/>
<path d="M649.477 322.36H393.86V694.254H649.477V322.36Z" fill="white" stroke="#263238" stroke-linecap="round" stroke-linejoin="round"/>
<path d="M427.835 272.779H513.143V359.546H393.86V306.761C393.86 297.748 397.44 289.105 403.811 282.732C410.183 276.359 418.824 272.779 427.835 272.779Z" fill="#92E3A9" stroke="#263238" stroke-linecap="round" stroke-linejoin="round"/>
<path d="M393.86 322.36H649.477V450.197C649.477 459.84 645.653 469.088 638.844 475.914C632.035 482.74 622.797 486.585 613.157 486.607H430.342C420.688 486.607 411.429 482.771 404.603 475.943C397.776 469.115 393.941 459.854 393.941 450.197V322.36H393.86Z" fill="#92E3A9" stroke="#263238" stroke-linecap="round" stroke-linejoin="round"/>
<path d="M649.477 322.36H393.86V356.455H649.477V322.36Z" fill="#92E3A9" stroke="#263238" stroke-linecap="round" stroke-linejoin="round"/>
<path d="M451.18 357.993V485.053" stroke="#263238" stroke-linecap="round" stroke-linejoin="round"/>
<path d="M522.445 488.16V599.654" stroke="#263238" stroke-linecap="round" stroke-linejoin="round"/>
<path d="M393.86 599.719H647.924" stroke="#263238" stroke-linecap="round" stroke-linejoin="round"/>
<path d="M393.86 647.245H647.924" stroke="#263238" stroke-linecap="round" stroke-linejoin="round"/>
<path d="M565.302 541.367H479.557C478.878 541.367 478.205 541.233 477.578 540.972C476.951 540.712 476.381 540.33 475.902 539.849C475.422 539.368 475.042 538.797 474.784 538.169C474.526 537.541 474.394 536.868 474.396 536.188C474.396 534.819 474.94 533.506 475.907 532.538C476.875 531.57 478.188 531.026 479.557 531.026H565.302C565.981 531.024 566.654 531.156 567.282 531.415C567.91 531.673 568.48 532.053 568.961 532.533C569.442 533.012 569.824 533.582 570.084 534.209C570.345 534.837 570.479 535.509 570.479 536.188C570.479 537.562 569.933 538.879 568.962 539.85C567.992 540.821 566.675 541.367 565.302 541.367Z" fill="#92E3A9" stroke="#263238" stroke-linecap="round" stroke-linejoin="round"/>
<path d="M565.302 632.261H479.557C478.188 632.261 476.875 631.717 475.907 630.749C474.94 629.781 474.396 628.468 474.396 627.099C474.396 625.73 474.94 624.417 475.907 623.449C476.875 622.481 478.188 621.937 479.557 621.937H565.302C565.981 621.935 566.654 622.067 567.282 622.325C567.91 622.584 568.48 622.963 568.961 623.443C569.442 623.923 569.824 624.492 570.084 625.12C570.345 625.747 570.479 626.42 570.479 627.099C570.479 627.778 570.345 628.451 570.084 629.078C569.824 629.705 569.442 630.275 568.961 630.755C568.48 631.234 567.91 631.614 567.282 631.873C566.654 632.131 565.981 632.263 565.302 632.261Z" fill="#92E3A9" stroke="#263238" stroke-linecap="round" stroke-linejoin="round"/>
<path d="M565.302 673.59H479.557C478.188 673.59 476.875 673.046 475.907 672.078C474.94 671.11 474.396 669.797 474.396 668.428C474.394 667.748 474.526 667.075 474.784 666.447C475.042 665.819 475.422 665.248 475.902 664.767C476.381 664.286 476.951 663.904 477.578 663.644C478.205 663.383 478.878 663.249 479.557 663.249H565.302C566.675 663.249 567.992 663.795 568.962 664.766C569.933 665.737 570.479 667.054 570.479 668.428C570.479 669.107 570.345 669.779 570.084 670.407C569.824 671.034 569.442 671.604 568.961 672.083C568.48 672.563 567.91 672.943 567.282 673.201C566.654 673.46 565.981 673.592 565.302 673.59Z" fill="#92E3A9" stroke="#263238" stroke-linecap="round" stroke-linejoin="round"/>
<path d="M315.379 301.696H299.881V329.593H315.379V301.696Z" fill="#737373" stroke="#263238" stroke-linecap="round" stroke-linejoin="round"/>
<path d="M274.06 232.485H341.2V296.614C341.2 299.331 340.121 301.937 338.201 303.858C336.28 305.778 333.675 306.858 330.959 306.858H284.301C281.585 306.858 278.98 305.778 277.06 303.858C275.139 301.937 274.06 299.331 274.06 296.614V232.485Z" fill="#263238" stroke="#263238" stroke-linecap="round" stroke-linejoin="round"/>
<path d="M333.968 240.754H281.292V272.778H333.968V240.754Z" fill="#92E3A9" stroke="#263238" stroke-linecap="round" stroke-linejoin="round"/>
<path d="M359.789 328.088V327.522H281.292V335.791L359.789 345.079H385.609V327.522L359.789 328.088Z" fill="#ADADAD" stroke="#263238" stroke-linecap="round" stroke-linejoin="round"/>
<path d="M307.112 335.791L385.609 345.079V327.522H307.112V335.791Z" fill="white" stroke="#263238" stroke-linecap="round" stroke-linejoin="round"/>
<path d="M307.112 327.522H281.292V335.791H307.112V327.522Z" fill="#ADADAD" stroke="#263238" stroke-linecap="round" stroke-linejoin="round"/>
<path d="M202.698 688.477C202.698 688.477 230.007 697.28 230.411 703.041C230.816 708.802 187.474 707.329 178.641 701.504C169.807 695.678 202.698 688.477 202.698 688.477Z" fill="white" stroke="#263238" stroke-linecap="round" stroke-linejoin="round"/>
<path d="M160.731 687.037C160.731 687.037 198.783 704.546 194.851 712.426C190.92 720.307 141.463 709.918 134.992 706.18C128.52 702.442 160.731 687.037 160.731 687.037Z" fill="white" stroke="#263238" stroke-linecap="round" stroke-linejoin="round"/>
<path d="M129.184 620.836C140.411 576.595 158.547 521.075 150.458 483.727C142.369 446.379 139.133 376.521 144.763 345.986C150.393 315.45 154.114 310.385 154.114 306.712C154.114 303.039 142.272 247.502 142.272 247.502C142.272 247.502 125.446 211.902 130.429 201.999C135.412 192.095 170.325 181.431 180.291 179.57C190.257 177.709 215.187 180.816 215.187 180.816C215.187 180.816 245.101 192.03 248.838 196.998C252.575 201.966 248.838 220.689 248.838 228.78C248.838 236.871 247.593 236.871 248.838 240.01C250.084 243.149 256.313 248.732 255.682 261.192C255.051 273.652 248.207 285.465 247.593 293.556C246.978 301.647 255.682 329.707 261.926 367.103C268.171 404.5 264.919 457.641 246.217 515.605C227.515 573.569 215.479 611.904 216.142 641.824C216.805 671.745 217.469 688.008 217.469 688.008C211.389 693.079 203.783 695.962 195.871 696.196C188.163 696.623 180.433 696.206 172.816 694.95C172.816 694.95 167.817 701.811 147.886 705.549C127.954 709.287 113.62 702.426 113.62 702.426C117.194 674.946 122.391 647.702 129.184 620.836ZM208.959 482.481C210.205 460.667 206.467 411.28 206.467 411.28C204.076 432.933 202.785 454.693 202.601 476.477C201.97 516.366 195.24 539.846 195.24 542.338C195.24 542.305 207.713 504.294 208.959 482.481Z" fill="#263238" stroke="#263238" stroke-linecap="round" stroke-linejoin="round"/>
<path d="M259.791 205.429C254.937 194.636 246.314 194.636 246.314 194.636V194.878C238.08 189.377 215.22 180.816 215.22 180.816C215.22 180.816 190.289 177.693 180.323 179.57C170.357 181.447 135.461 192.03 130.478 201.998C125.495 211.967 142.304 247.502 142.304 247.502C142.304 247.502 154.147 302.974 154.147 306.712C154.147 310.45 150.458 315.434 144.763 345.986C144.65 346.601 144.553 347.248 144.44 347.895C165.18 352.653 186.444 354.73 207.713 354.077C232.078 353.025 247.819 346.358 256.911 340.775C251.88 316.874 247.123 299.673 247.593 293.621C248.062 287.569 252.187 279.057 254.371 269.817C262.234 277.067 271.067 284.381 274.901 284.721C282.505 285.287 289.462 276.63 290.53 270.691C291.597 264.752 264.644 216.222 259.791 205.429Z" fill="#92E3A9" stroke="#263238" stroke-linecap="round" stroke-linejoin="round"/>
<path d="M133.503 198.374C133.503 198.374 124.152 203.05 122.178 206.465C120.205 209.879 93.4297 309.091 93.4297 309.091L126.191 313.12L146.236 247.793C146.236 247.793 150.232 230.43 146.236 221.077" fill="#92E3A9"/>
<path d="M133.503 198.374C133.503 198.374 124.152 203.05 122.178 206.465C120.205 209.879 93.4297 309.091 93.4297 309.091L126.191 313.12L146.236 247.793C146.236 247.793 150.232 230.43 146.236 221.077" stroke="#263238" stroke-linecap="round" stroke-linejoin="round"/>
<path d="M198.362 160.217C203.145 159.914 207.914 160.985 212.108 163.305C216.302 165.624 219.745 169.095 222.031 173.308C230.767 188.276 232.013 216.319 232.013 216.319C232.013 216.319 214.556 199.49 208.328 196.998C202.099 194.506 187.765 196.367 181.537 206.351C178.089 211.771 174.967 217.391 172.186 223.181C172.186 223.181 155.312 191.399 160.974 173.324C166.636 155.249 198.362 160.217 198.362 160.217Z" fill="white" stroke="#263238" stroke-linecap="round" stroke-linejoin="round"/>
<path d="M200.853 149.019C200.853 149.019 198.993 154.634 205.222 171.544C211.45 188.454 210.205 217.663 202.714 215.235C195.223 212.808 180.906 184.49 179.045 172.078C177.185 159.666 175.308 144.035 175.308 144.035L200.853 149.019Z" fill="#BFBFBF" stroke="#263238" stroke-linecap="round" stroke-linejoin="round"/>
<path d="M158.11 46.7487C158.11 46.7487 149.407 40.7775 145.734 44.904C142.062 49.0304 144.359 54.9853 142.984 56.8301C141.609 58.6748 127.873 53.5937 123.748 63.3028C119.622 73.012 131.044 78.8214 129.248 83.8701C127.453 88.9189 122.373 91.6536 123.295 97.6248C124.217 103.596 132.905 106.331 131.999 110.91C131.093 115.49 128.326 121.38 133.374 124.616C138.421 127.853 146.316 122.221 148.808 125.943C151.299 129.665 160.408 133.775 164.986 130.571C169.565 127.367 173.075 122.561 174.693 124.098C176.311 125.636 189.254 129.697 191.049 126.493C192.845 123.289 193.8 116.412 196.534 114.583C199.268 112.755 206.629 110.91 205.707 104.874C204.785 98.8384 197.909 96.1684 199.236 90.6665C200.562 85.1647 203.83 77.8342 202.471 74.614C201.112 71.3938 195.757 72.834 195.757 68.74C195.757 64.646 199.883 57.7362 196.21 54.0791C192.538 50.422 184.756 52.7037 182.006 50.4058C179.255 48.108 179.255 41.2468 173.755 41.2468C168.254 41.2468 161.314 47.6549 158.11 46.7487Z" fill="#263238" stroke="#263238" stroke-linecap="round" stroke-linejoin="round"/>
<path d="M153.791 125.264C153.791 125.264 151.105 117.852 146.721 119.875C142.337 121.898 145.103 134.034 149.423 139.763C153.742 145.491 159.858 138.403 159.858 138.403L153.791 125.264Z" fill="#BFBFBF" stroke="#263238" stroke-linecap="round" stroke-linejoin="round"/>
<path d="M148.436 131.251C148.436 131.251 146.931 125.603 148.808 125.992C150.685 126.38 155.959 132.011 155.959 132.011C155.959 132.011 151.105 131.251 152.577 133.516" stroke="#263238" stroke-linecap="round" stroke-linejoin="round"/>
<path d="M221.368 121.752C221.368 121.752 222.856 114.001 227.499 115.279C232.142 116.558 231.414 128.969 228.001 135.329C224.587 141.688 217.485 135.652 217.485 135.652L221.368 121.752Z" fill="#BFBFBF" stroke="#263238" stroke-linecap="round" stroke-linejoin="round"/>
<path d="M227.629 126.817C227.629 126.817 228.211 120.992 226.415 121.671C224.619 122.351 220.316 128.743 220.316 128.743C220.316 128.743 225.024 127.222 223.891 129.697" stroke="#263238" stroke-linecap="round" stroke-linejoin="round"/>
<path d="M159.259 65.7787L159.13 65.8919C142.369 79.8732 144.197 103.806 151.93 122.108C156.298 132.465 160.472 142.384 166.636 151.77C174.386 163.566 186.811 174.424 199.608 170.071C212.405 165.718 224.183 131.672 223.875 106.072C223.681 91.3624 217.986 75.1642 206.856 65.0181C200.878 59.7007 193.176 56.7288 185.177 56.652C175.768 56.7546 166.657 59.963 159.259 65.7787Z" fill="#BFBFBF" stroke="#263238" stroke-linecap="round" stroke-linejoin="round"/>
<path d="M173.868 129.503L180.679 128.209" stroke="#263238" stroke-linecap="round" stroke-linejoin="round"/>
<path d="M201.889 125.587L208.959 126.105" stroke="#263238" stroke-linecap="round" stroke-linejoin="round"/>
<path d="M184.433 132.351C184.433 132.351 182.07 136.381 183.413 138.403C183.823 138.969 184.413 139.378 185.087 139.563C185.76 139.749 186.477 139.699 187.118 139.423C189.085 140.016 191.164 140.133 193.185 139.763C196.21 139.083 196.89 137.74 196.89 137.74C196.89 137.74 198.912 139.083 199.592 136.122C200.271 133.16 196.89 130.393 196.89 130.393" stroke="#263238" stroke-linecap="round" stroke-linejoin="round"/>
<path d="M181.084 148.889C181.084 148.889 188.154 160.006 195.903 157.304C203.652 154.602 205.61 145.507 205.61 145.507C197.976 149.129 189.412 150.31 181.084 148.889Z" fill="#808080" stroke="#263238" stroke-linecap="round" stroke-linejoin="round"/>
<path d="M181.084 148.889C181.084 148.889 195.903 152.255 205.658 145.507C205.658 145.507 199.931 143.889 197.246 144.164C195.497 144.483 193.932 145.448 192.861 146.866C190.945 146.005 188.902 145.458 186.811 145.248C184.433 145.151 181.084 148.889 181.084 148.889Z" fill="#808080" stroke="#263238" stroke-linecap="round" stroke-linejoin="round"/>
<path d="M206.014 121.25C206.014 123.564 205.125 125.474 203.927 125.506C202.73 125.539 201.695 123.662 201.662 121.331C201.63 119.001 202.552 117.108 203.749 117.092C204.947 117.075 205.966 118.92 206.014 121.25Z" fill="#263238"/>
<path d="M179.029 123.208C179.498 125.49 178.932 127.529 177.751 127.772C176.57 128.015 175.227 126.364 174.758 124.098C174.289 121.833 174.855 119.778 176.036 119.535C177.217 119.292 178.56 120.927 179.029 123.208Z" fill="#263238"/>
<path d="M165.245 117.189C165.245 117.189 168.61 110.441 179.806 111.46" stroke="#263238" stroke-linecap="round" stroke-linejoin="round"/>
<path d="M195.903 111.121C195.903 111.121 204.995 107.075 211.386 114.826" stroke="#263238" stroke-linecap="round" stroke-linejoin="round"/>
<path d="M206.823 65.0181C200.853 59.708 193.165 56.7366 185.177 56.652C175.774 56.7755 166.674 60.0009 159.291 65.8272L159.162 65.9405C142.79 79.6143 144.165 102.803 151.461 120.959C152.319 114.826 155.392 100.764 166.022 92.0096C179.822 80.5528 193.638 82.5756 203.07 87.6243C212.64 92.8165 219.991 101.319 223.746 111.541C223.746 109.68 223.875 107.852 223.843 106.072C223.649 91.3624 217.954 75.1642 206.823 65.0181Z" fill="#263238" stroke="#263238" stroke-linecap="round" stroke-linejoin="round"/>
<path d="M147.74 83.158C147.74 83.158 148.743 95.958 162.301 94.6148" stroke="#6E6E6E" stroke-linecap="round" stroke-linejoin="round"/>
<path d="M153.128 72.7207C153.128 72.7207 152.108 90.2296 168.95 89.2263" stroke="#6E6E6E" stroke-linecap="round" stroke-linejoin="round"/>
<path d="M159.259 65.7786C159.259 65.7786 166.636 83.8377 179.401 84.1613" stroke="#6E6E6E" stroke-linecap="round" stroke-linejoin="round"/>
<path d="M179.725 57.5582C182.945 60.8915 185.256 64.9955 186.437 69.4777C187.619 73.9598 187.63 78.6702 186.471 83.1581" stroke="#6E6E6E" stroke-linecap="round" stroke-linejoin="round"/>
<path d="M198.249 59.8884C198.249 59.8884 211.725 70.3258 200.611 86.4916" stroke="#6E6E6E" stroke-linecap="round" stroke-linejoin="round"/>
<path d="M211.386 93.2718C213.224 91.1587 214.618 88.6972 215.485 86.0339C216.352 83.3706 216.675 80.56 216.433 77.7695" stroke="#6E6E6E" stroke-linecap="round" stroke-linejoin="round"/>
<path d="M210.318 172.321C210.318 172.321 194.965 168.324 192.295 171.657C191.535 172.472 191.113 173.545 191.113 174.659C191.113 175.773 191.535 176.846 192.295 177.661L196.291 179.004C196.291 179.004 198.961 195.04 204.979 196.367C209.604 197.239 214.299 197.689 219.005 197.71C219.005 197.71 263.318 280.821 267.33 284.154C271.342 287.488 284.026 294.851 289.98 281.484C295.933 268.118 288.637 262.066 285.967 256.111C283.298 250.156 217.614 173 216.951 170.994C216.288 168.987 210.835 161.835 210.172 158.501C209.509 155.168 204.817 156.495 204.817 159.844C204.817 163.194 210.318 172.321 210.318 172.321Z" fill="#BFBFBF" stroke="#263238" stroke-linecap="round" stroke-linejoin="round"/>
<path d="M189.399 243.473L183.85 326.778L252.689 320.111L263.803 237.922L189.399 243.473Z" fill="white" stroke="#9E9E9E" stroke-linecap="round" stroke-linejoin="round"/>
<path d="M172.218 287.196L178.236 268.506L187.668 263.781V274.461C187.668 274.461 213.553 269.121 214.896 271.128C216.239 273.134 211.547 275.804 211.547 275.804C211.547 275.804 206.888 287.132 205.545 289.818C204.202 292.504 182.993 297.909 179.66 298.508C177.178 299.047 174.726 299.716 172.315 300.514C172.315 300.514 114.219 330.435 108.88 332.441C103.541 334.448 92.8472 325.095 92.8472 315.078C92.8472 305.061 98.8656 301.712 104.172 299.705C109.479 297.699 172.218 287.196 172.218 287.196Z" fill="#BFBFBF" stroke="#263238" stroke-linecap="round" stroke-linejoin="round"/>
</svg>
