<svg width="86" height="86" viewBox="0 0 86 86" fill="none" xmlns="http://www.w3.org/2000/svg">
<rect width="86" height="86" rx="6" fill="#16C194"/>
<path d="M49.2727 34H55.5455C56.9184 34 58.2778 34.2587 59.5462 34.7612C60.8146 35.2638 61.9671 36.0003 62.9379 36.9289C63.9087 37.8575 64.6788 38.9599 65.2042 40.1732C65.7296 41.3864 66 42.6868 66 44C66 45.3132 65.7296 46.6136 65.2042 47.8268C64.6788 49.0401 63.9087 50.1425 62.9379 51.0711C61.9671 51.9997 60.8146 52.7362 59.5462 53.2388C58.2778 53.7413 56.9184 54 55.5455 54H49.2727M36.7273 54H30.4545C29.0816 54 27.7222 53.7413 26.4538 53.2388C25.1854 52.7362 24.0329 51.9997 23.0621 51.0711C21.1015 49.1957 20 46.6522 20 44C20 41.3478 21.1015 38.8043 23.0621 36.9289C25.0227 35.0536 27.6818 34 30.4545 34H36.7273" stroke="#F2F2F2" stroke-width="2" stroke-linecap="round" stroke-linejoin="round"/>
<path d="M35 44H51" stroke="#F2F2F2" stroke-width="2" stroke-linecap="round" stroke-linejoin="round"/>
</svg>
